<?xml version="1.0" encoding="UTF-8" standalone="no"?>
<svg width="800" height="800" viewBox="0 0 800 800" xmlns="http://www.w3.org/2000/svg">
  <!-- Title -->
  <text x="400" y="40" font-size="24" font-weight="bold" text-anchor="middle" font-family="Arial, sans-serif">Mapping Spiral Galaxy Structure to Bach's Canon</text>
  
  <!-- Upper section - Spiral Galaxy -->
  <g transform="translate(0, 60)">
    <text x="400" y="30" font-size="20" font-weight="bold" text-anchor="middle" font-family="Arial, sans-serif">Spiral Galaxy Structure</text>
    
    <!-- Background stars -->
    <g>
      <!-- Random stars in background -->
      <circle cx="120" cy="140" r="1" fill="#fff" />
      <circle cx="210" cy="90" r="1.5" fill="#fff" />
      <circle cx="310" cy="180" r="1" fill="#fff" />
      <circle cx="450" cy="100" r="1.2" fill="#fff" />
      <circle cx="520" cy="150" r="1" fill="#fff" />
      <circle cx="580" cy="220" r="1.3" fill="#fff" />
      <circle cx="650" cy="130" r="1" fill="#fff" />
      <circle cx="150" cy="230" r="1.2" fill="#fff" />
      <circle cx="280" cy="120" r="1" fill="#fff" />
      <circle cx="390" cy="240" r="1.5" fill="#fff" />
      <circle cx="470" cy="190" r="1" fill="#fff" />
      <circle cx="550" cy="90" r="1.2" fill="#fff" />
      <circle cx="140" cy="190" r="1" fill="#fff" />
      <circle cx="230" cy="240" r="1.3" fill="#fff" />
      <circle cx="340" cy="70" r="1" fill="#fff" />
      <circle cx="430" cy="220" r="1.2" fill="#fff" />
      <circle cx="500" cy="130" r="1.5" fill="#fff" />
      <circle cx="590" cy="170" r="1" fill="#fff" />
      <circle cx="680" cy="110" r="1.2" fill="#fff" />
      <!-- Add more stars as needed -->
    </g>
    
    <!-- Galaxy center -->
    <circle cx="400" cy="180" r="30" fill="rgba(255, 235, 153, 0.7)" stroke="#E6B422" stroke-width="2" />
    <circle cx="400" cy="180" r="45" fill="rgba(255, 235, 153, 0.3)" />
    
    <!-- Spiral arms -->
    <!-- Core/Piano (Blue) Spiral -->
    <path d="M 400 180 
             C 430 160, 460 170, 480 195 
             C 500 220, 490 250, 465 275 
             C 440 300, 410 305, 380 290 
             C 350 275, 340 245, 355 215 
             C 370 185, 400 180, 400 180" 
          fill="none" stroke="#4285F4" stroke-width="3" />
          
    <!-- Bright points along Core Spiral -->
    <circle cx="430" cy="170" r="4" fill="#4285F4" />
    <circle cx="480" cy="205" r="4" fill="#4285F4" />
    <circle cx="465" cy="265" r="4" fill="#4285F4" />
    <circle cx="400" cy="295" r="4" fill="#4285F4" />
    <circle cx="355" cy="230" r="4" fill="#4285F4" />
    
    <!-- Inner/Strings (Red) Spiral -->
    <path d="M 400 180 
             C 370 160, 345 170, 325 195 
             C 305 220, 315 250, 335 275 
             C 355 300, 380 310, 410 295 
             C 440 280, 455 250, 440 220 
             C 425 190, 400 180, 400 180" 
          fill="none" stroke="#EA4335" stroke-width="3" />
          
    <!-- Bright points along Inner Spiral -->
    <circle cx="355" cy="170" r="4" fill="#EA4335" />
    <circle cx="325" cy="205" r="4" fill="#EA4335" />
    <circle cx="345" cy="265" r="4" fill="#EA4335" />
    <circle cx="390" cy="295" r="4" fill="#EA4335" />
    <circle cx="435" cy="235" r="4" fill="#EA4335" />
    
    <!-- Middle/Brass (Yellow) Spiral - Extending further -->
    <path d="M 400 180 
             C 450 155, 490 165, 520 195 
             C 550 225, 560 270, 535 310 
             C 510 350, 465 370, 420 360 
             C 375 350, 340 320, 330 275 
             C 320 230, 340 190, 380 170 
             C 390 165, 400 180, 400 180" 
          fill="none" stroke="#FBBC05" stroke-width="3" />
          
    <!-- Bright points along Middle Spiral -->
    <circle cx="470" cy="170" r="4" fill="#FBBC05" />
    <circle cx="535" cy="220" r="4" fill="#FBBC05" />
    <circle cx="520" cy="295" r="4" fill="#FBBC05" />
    <circle cx="450" cy="355" r="4" fill="#FBBC05" />
    <circle cx="370" cy="320" r="4" fill="#FBBC05" />
    <circle cx="340" cy="225" r="4" fill="#FBBC05" />
    
    <!-- Outer/Woodwinds (Green) Spiral - Extending furthest -->
    <path d="M 400 180 
             C 340 145, 290 155, 255 190 
             C 220 225, 210 280, 235 330 
             C 260 380, 310 410, 365 405 
             C 420 400, 465 370, 485 320 
             C 505 270, 500 215, 465 175 
             C 430 135, 400 180, 400 180" 
          fill="none" stroke="#34A853" stroke-width="3" />
          
    <!-- Bright points along Outer Spiral -->
    <circle cx="315" cy="155" r="4" fill="#34A853" />
    <circle cx="260" cy="210" r="4" fill="#34A853" />
    <circle cx="235" cy="300" r="4" fill="#34A853" />
    <circle cx="290" cy="380" r="4" fill="#34A853" />
    <circle cx="360" cy="395" r="4" fill="#34A853" />
    <circle cx="440" cy="355" r="4" fill="#34A853" />
    <circle cx="475" cy="280" r="4" fill="#34A853" />
    <circle cx="465" cy="210" r="4" fill="#34A853" />
    
    <!-- Labels for galaxy elements -->
    <text x="400" cy="100" font-size="14" font-weight="bold" text-anchor="middle">r = a·e^(b·θ)</text>
    <text x="550" cy="130" font-size="14" text-anchor="middle">Radial Distance (r)</text>
    <text x="320" cy="250" font-size="14" text-anchor="middle">Angle (θ)</text>
    <text x="480" cy="240" font-size="14" text-anchor="middle">Density Wave</text>
    
    <!-- Legend -->
    <g transform="translate(50, 80)">
      <rect x="0" y="0" width="15" height="15" fill="#4285F4" />
      <text x="25" y="12" font-size="12">Galactic Core (Piano)</text>
      
      <rect x="0" y="25" width="15" height="15" fill="#EA4335" />
      <text x="25" y="37" font-size="12">Inner Spiral (Strings)</text>
      
      <rect x="0" y="50" width="15" height="15" fill="#FBBC05" />
      <text x="25" y="62" font-size="12">Middle Spiral (Brass)</text>
      
      <rect x="0" y="75" width="15" height="15" fill="#34A853" />
      <text x="25" y="87" font-size="12">Outer Spiral (Woodwinds)</text>
    </g>
  </g>
  
  <!-- Middle section - Mapping relationship -->
  <g transform="translate(0, 420)">
    <text x="400" y="30" font-size="20" font-weight="bold" text-anchor="middle" font-family="Arial, sans-serif">Mathematical Mapping</text>
    
    <!-- Mapping arrows -->
    <line x1="200" y1="55" x2="200" y2="85" stroke="#666" stroke-width="1.5" marker-end="url(#arrowhead)" />
    <line x1="400" y1="55" x2="400" y2="85" stroke="#666" stroke-width="1.5" marker-end="url(#arrowhead)" />
    <line x1="600" y1="55" x2="600" y2="85" stroke="#666" stroke-width="1.5" marker-end="url(#arrowhead)" />
    
    <!-- Mapping labels -->
    <text x="200" y="50" font-size="12" text-anchor="middle">Spiral Arms → Canonic Voices</text>
    <text x="400" y="50" font-size="12" text-anchor="middle">Radial Distance → Pitch Height</text>
    <text x="600" y="50" font-size="12" text-anchor="middle">Density Variations → Note Density</text>
    
    <!-- Mapping table -->
    <g transform="translate(150, 100)">
      <rect x="0" y="0" width="500" height="30" fill="#f2f2f2" stroke="#ddd" />
      <text x="85" y="20" font-size="14" font-weight="bold">Spiral Galaxy Parameter</text>
      <text x="335" y="20" font-size="14" font-weight="bold">Bach's Canon Element</text>
      
      <rect x="0" y="30" width="500" height="25" fill="#fff" stroke="#ddd" />
      <text x="10" y="47" font-size="12" font-weight="bold">Spiral Arms</text>
      <text x="250" y="47" font-size="12">→</text>
      <text x="280" y="47" font-size="12" font-weight="bold">Canonic Voices</text>
      
      <rect x="0" y="55" width="500" height="25" fill="#f9f9f9" stroke="#ddd" />
      <text x="10" y="72" font-size="12" font-weight="bold">Rotational Symmetry</text>
      <text x="250" y="72" font-size="12">→</text>
      <text x="280" y="72" font-size="12" font-weight="bold">Imitation</text>
      
      <rect x="0" y="80" width="500" height="25" fill="#fff" stroke="#ddd" />
      <text x="10" y="97" font-size="12" font-weight="bold">Radial Distance (r)</text>
      <text x="250" y="97" font-size="12">→</text>
      <text x="280" y="97" font-size="12" font-weight="bold">Transposition Level</text>
      
      <rect x="0" y="105" width="500" height="25" fill="#f9f9f9" stroke="#ddd" />
      <text x="10" y="122" font-size="12" font-weight="bold">Angle (θ)</text>
      <text x="250" y="122" font-size="12">→</text>
      <text x="280" y="122" font-size="12" font-weight="bold">Temporal Position</text>
      
      <rect x="0" y="130" width="500" height="25" fill="#fff" stroke="#ddd" />
      <text x="10" y="147" font-size="12" font-weight="bold">Density Variations</text>
      <text x="250" y="147" font-size="12">→</text>
      <text x="280" y="147" font-size="12" font-weight="bold">Rhythmic Density</text>
      
      <rect x="0" y="155" width="500" height="25" fill="#f9f9f9" stroke="#ddd" />
      <text x="10" y="172" font-size="12" font-weight="bold">Logarithmic Growth</text>
      <text x="250" y="172" font-size="12">→</text>
      <text x="280" y="172" font-size="12" font-weight="bold">Augmentation</text>
    </g>
  </g>
  
  <!-- Lower section - Bach's Canon -->
  <g transform="translate(0, 720)">
    <text x="400" y="-100" font-size="20" font-weight="bold" text-anchor="middle" font-family="Arial, sans-serif">Bach's Canon Structure</text>
    
    <!-- Staff lines for Piano/Core -->
    <g transform="translate(0, -70)">
      <text x="50" y="0" font-size="14" fill="#4285F4" font-weight="bold">Piano</text>
      <line x1="100" y1="0" x2="700" y2="0" stroke="#333" stroke-width="1" />
      <line x1="100" y1="10" x2="700" y2="10" stroke="#333" stroke-width="1" />
      <line x1="100" y1="20" x2="700" y2="20" stroke="#333" stroke-width="1" />
      <line x1="100" y1="30" x2="700" y2="30" stroke="#333" stroke-width="1" />
      <line x1="100" y1="40" x2="700" y2="40" stroke="#333" stroke-width="1" />
      <text x="115" y="30" font-size="40">𝄞</text> <!-- G clef -->
      
      <!-- Piano notes -->
      <!-- Quarter notes -->
      <circle cx="200" cy="20" rx="6" ry="4" fill="#4285F4" transform="rotate(-30 200 20)" />
      <line x1="205" y1="20" x2="205" y2="-10" stroke="#4285F4" stroke-width="1.5" />
      
      <circle cx="250" cy="15" rx="6" ry="4" fill="#4285F4" transform="rotate(-30 250 15)" />
      <line x1="255" y1="15" x2="255" y2="-15" stroke="#4285F4" stroke-width="1.5" />
      
      <circle cx="300" cy="10" rx="6" ry="4" fill="#4285F4" transform="rotate(-30 300 10)" />
      <line x1="305" y1="10" x2="305" y2="-20" stroke="#4285F4" stroke-width="1.5" />
      
      <!-- Eighth notes -->
      <circle cx="350" cy="15" rx="6" ry="4" fill="#4285F4" transform="rotate(-30 350 15)" />
      <line x1="355" y1="15" x2="355" y2="-15" stroke="#4285F4" stroke-width="1.5" />
      <path d="M 355 -15 C 365 -10, 365 -5, 355 0" stroke="#4285F4" fill="none" stroke-width="1.5" />
      
      <circle cx="385" cy="20" rx="6" ry="4" fill="#4285F4" transform="rotate(-30 385 20)" />
      <line x1="390" y1="20" x2="390" y2="-10" stroke="#4285F4" stroke-width="1.5" />
      <path d="M 390 -10 C 400 -5, 400 0, 390 5" stroke="#4285F4" fill="none" stroke-width="1.5" />
      
      <!-- 16th notes -->
      <circle cx="420" cy="15" rx="6" ry="4" fill="#4285F4" transform="rotate(-30 420 15)" />
      <line x1="425" y1="15" x2="425" y2="-15" stroke="#4285F4" stroke-width="1.5" />
      <path d="M 425 -15 C 435 -10, 435 -5, 425 0" stroke="#4285F4" fill="none" stroke-width="1.5" />
      <path d="M 425 -7 C 435 -2, 435 3, 425 8" stroke="#4285F4" fill="none" stroke-width="1.5" />
      
      <circle cx="455" cy="10" rx="6" ry="4" fill="#4285F4" transform="rotate(-30 455 10)" />
      <line x1="460" y1="10" x2="460" y2="-20" stroke="#4285F4" stroke-width="1.5" />
      <path d="M 460 -20 C 470 -15, 470 -10, 460 -5" stroke="#4285F4" fill="none" stroke-width="1.5" />
      <path d="M 460 -12 C 470 -7, 470 -2, 460 3" stroke="#4285F4" fill="none" stroke-width="1.5" />
      
      <!-- Quarter notes -->
      <circle cx="490" cy="15" rx="6" ry="4" fill="#4285F4" transform="rotate(-30 490 15)" />
      <line x1="495" y1="15" x2="495" y2="-15" stroke="#4285F4" stroke-width="1.5" />
      
      <circle cx="525" cy="20" rx="6" ry="4" fill="#4285F4" transform="rotate(-30 525 20)" />
      <line x1="530" y1="20" x2="530" y2="-10" stroke="#4285F4" stroke-width="1.5" />
      
      <circle cx="560" cy="15" rx="6" ry="4" fill="#4285F4" transform="rotate(-30 560 15)" />
      <line x1="565" y1="15" x2="565" y2="-15" stroke="#4285F4" stroke-width="1.5" />
      
      <circle cx="595" cy="10" rx="6" ry="4" fill="#4285F4" transform="rotate(-30 595 10)" />
      <line x1="600" y1="10" x2="600" y2="-20" stroke="#4285F4" stroke-width="1.5" />
      
      <circle cx="630" cy="15" rx="6" ry="4" fill="#4285F4" transform="rotate(-30 630 15)" />
      <line x1="635" y1="15" x2="635" y2="-15" stroke="#4285F4" stroke-width="1.5" />
      
      <circle cx="665" cy="20" rx="6" ry="4" fill="#4285F4" transform="rotate(-30 665 20)" />
      <line x1="670" y1="20" x2="670" y2="-10" stroke="#4285F4" stroke-width="1.5" />
    </g>
    
    <!-- Staff lines for Strings -->
    <g transform="translate(0, 0)">
      <text x="50" y="0" font-size="14" fill="#EA4335" font-weight="bold">Strings</text>
      <line x1="100" y1="0" x2="700" y2="0" stroke="#333" stroke-width="1" />
      <line x1="100" y1="10" x2="700" y2="10" stroke="#333" stroke-width="1" />
      <line x1="100" y1="20" x2="700" y2="20" stroke="#333" stroke-width="1" />
      <line x1="100" y1="30" x2="700" y2="30" stroke="#333" stroke-width="1" />
      <line x1="100" y1="40" x2="700" y2="40" stroke="#333" stroke-width="1" />
      <text x="115" y="30" font-size="40">𝄞</text> <!-- G clef -->
      
      <!-- String notes starting later -->
      <!-- Quarter notes -->
      <circle cx="250" cy="20" rx="6" ry="4" fill="#EA4335" transform="rotate(-30 250 20)" />
      <line x1="255" y1="20" x2="255" y2="-10" stroke="#EA4335" stroke-width="1.5" />
      
      <circle cx="300" cy="15" rx="6" ry="4" fill="#EA4335" transform="rotate(-30 300 15)" />
      <line x1="305" y1="15" x2="305" y2="-15" stroke="#EA4335" stroke-width="1.5" />
      
      <circle cx="350" cy="10" rx="6" ry="4" fill="#EA4335" transform="rotate(-30 350 10)" />
      <line x1="355" y1="10" x2="355" y2="-20" stroke="#EA4335" stroke-width="1.5" />
      
      <!-- Eighth notes -->
      <circle cx="400" cy="15" rx="6" ry="4" fill="#EA4335" transform="rotate(-30 400 15)" />
      <line x1="405" y1="15" x2="405" y2="-15" stroke="#EA4335" stroke-width="1.5" />
      <path d="M 405 -15 C 415 -10, 415 -5, 405 0" stroke="#EA4335" fill="none" stroke-width="1.5" />
      
      <circle cx="435" cy="20" rx="6" ry="4" fill="#EA4335" transform="rotate(-30 435 20)" />
      <line x1="440" y1="20" x2="440" y2="-10" stroke="#EA4335" stroke-width="1.5" />
      <path d="M 440 -10 C 450 -5, 450 0, 440 5" stroke="#EA4335" fill="none" stroke-width="1.5" />
      
      <!-- Quarter notes -->
      <circle cx="470" cy="15" rx="6" ry="4" fill="#EA4335" transform="rotate(-30 470 15)" />
      <line x1="475" y1="15" x2="475" y2="-15" stroke="#EA4335" stroke-width="1.5" />
      
      <circle cx="505" cy="10" rx="6" ry="4" fill="#EA4335" transform="rotate(-30 505 10)" />
      <line x1="510" y1="10" x2="510" y2="-20" stroke="#EA4335" stroke-width="1.5" />
      
      <!-- 16th notes -->
      <circle cx="540" cy="15" rx="6" ry="4" fill="#EA4335" transform="rotate(-30 540 15)" />
      <line x1="545" y1="15" x2="545" y2="-15" stroke="#EA4335" stroke-width="1.5" />
      <path d="M 545 -15 C 555 -10, 555 -5, 545 0" stroke="#EA4335" fill="none" stroke-width="1.5" />
      <path d="M 545 -7 C 555 -2, 555 3, 545 8" stroke="#EA4335" fill="none" stroke-width="1.5" />
      
      <circle cx="575" cy="20" rx="6" ry="4" fill="#EA4335" transform="rotate(-30 575 20)" />
      <line x1="580" y1="20" x2="580" y2="-10" stroke="#EA4335" stroke-width="1.5" />
      <path d="M 580 -10 C 590 -5, 590 0, 580 5" stroke="#EA4335" fill="none" stroke-width="1.5" />
      <path d="M 580 -2 C 590 3, 590 8, 580 13" stroke="#EA4335" fill="none" stroke-width="1.5" />
      
      <!-- Quarter notes -->
      <circle cx="610" cy="15" rx="6" ry="4" fill="#EA4335" transform="rotate(-30 610 15)" />
      <line x1="615" y1="15" x2="615" y2="-15" stroke="#EA4335" stroke-width="1.5" />
      
      <circle cx="645" cy="10" rx="6" ry="4" fill="#EA4335" transform="rotate(-30 645 10)" />
      <line x1="650" y1="10" x2="650" y2="-20" stroke="#EA4335" stroke-width="1.5" />
    </g>
    
    <!-- Staff lines for Brass -->
    <g transform="translate(0, 70)">
      <text x="50" y="0" font-size="14" fill="#FBBC05" font-weight="bold">Brass</text>
      <line x1="100" y1="0" x2="700" y2="0" stroke="#333" stroke-width="1" />
      <line x1="100" y1="10" x2="700" y2="10" stroke="#333" stroke-width="1" />
      <line x1="100" y1="20" x2="700" y2="20" stroke="#333" stroke-width="1" />
      <line x1="100" y1="30" x2="700" y2="30" stroke="#333" stroke-width="1" />
      <line x1="100" y1="40" x2="700" y2="40" stroke="#333" stroke-width="1" />
      <text x="115" y="30" font-size="40">𝄞</text> <!-- G clef -->
      
      <!-- Brass notes starting even later -->
      <!-- Quarter notes -->
      <circle cx="320" cy="20" rx="6" ry="4" fill="#FBBC05" transform="rotate(-30 320 20)" />
      <line x1="325" y1="20" x2="325" y2="-10" stroke="#FBBC05" stroke-width="1.5" />
      
      <circle cx="370" cy="15" rx="6" ry="4" fill="#FBBC05" transform="rotate(-30 370 15)" />
      <line x1="375" y1="15" x2="375" y2="-15" stroke="#FBBC05" stroke-width="1.5" />
      
      <circle cx="420" cy="10" rx="6" ry="4" fill="#FBBC05" transform="rotate(-30 420 10)" />
      <line x1="425" y1="10" x2="425" y2="-20" stroke="#FBBC05" stroke-width="1.5" />
      
      <!-- Eighth notes -->
      <circle cx="470" cy="15" rx="6" ry="4" fill="#FBBC05" transform="rotate(-30 470 15)" />
      <line x1="475" y1="15" x2="475" y2="-15" stroke="#FBBC05" stroke-width="1.5" />
      <path d="M 475 -15 C 485 -10, 485 -5, 475 0" stroke="#FBBC05" fill="none" stroke-width="1.5" />
      
      <circle cx="505" cy="20" rx="6" ry="4" fill="#FBBC05" transform="rotate(-30 505 20)" />
      <line x1="510" y1="20" x2="510" y2="-10" stroke="#FBBC05" stroke-width="1.5" />
      <path d="M 510 -10 C 520 -5, 520 0, 510 5" stroke="#FBBC05" fill="none" stroke-width="1.5" />
      
      <!-- 16th notes -->
      <circle cx="540" cy="15" rx="6" ry="4" fill="#FBBC05" transform="rotate(-30 540 15)" />
      <line x1="545" y1="15" x2="545" y2="-15" stroke="#FBBC05" stroke-width="1.5" />
      <path d="M 545 -15 C 555 -10, 555 -5, 545 0" stroke="#FBBC05" fill="none" stroke-width="1.5" />
      <path d="M 545 -7 C 555 -2, 555 3, 545 8" stroke="#FBBC05" fill="none" stroke-width="1.5" />
      
      <!-- Quarter notes -->
      <circle cx="575" cy="10" rx="6" ry="4" fill="#FBBC05" transform="rotate(-30 575 10)" />
      <line x1="580" y1="10" x2="580" y2="-20" stroke="#FBBC05" stroke-width="1.5" />
      
      <circle cx="610" cy="15" rx="6" ry="4" fill="#FBBC05" transform="rotate(-30 610 15)" />
      <line x1="615" y1="15" x2="615" y2="-15" stroke="#FBBC05" stroke-width="1.5" />
      
      <circle cx="645" cy="20" rx="6" ry="4" fill="#FBBC05" transform="rotate(-30 645 20)" />
      <line x1="650" y1="20" x2="650" y2="-10" stroke="#FBBC05" stroke-width="1.5" />
    </g>
    
    <!-- Staff lines for Woodwinds -->
    <g transform="translate(0, 140)">
      <text x="50" y="0" font-size="14" fill="#34A853" font-weight="bold">Woodwinds</text>
      <line x1="100" y1="0" x2="700" y2="0" stroke="#333" stroke-width="1" />
      <line x1="100" y1="10" x2="700" y2="10" stroke="#333" stroke-width="1" />
      <line x1="100" y1="20" x2="700" y2="20" stroke="#333" stroke-width="1" />
      <line x1="100" y1="30" x2="700" y2="30" stroke="#333" stroke-width="1" />
      <line x1="100" y1="40" x2="700" y2="40" stroke="#333" stroke-width="1" />
      <text x="115" y="30" font-size="40">𝄞</text> <!-- G clef -->
      
      <!-- Woodwinds notes starting last -->
      <!-- Quarter notes -->
      <circle cx="400" cy="20" rx="6" ry="4" fill="#34A853" transform="rotate(-30 400 20)" />
      <line x1="405" y1="20" x2="405" y2="-10" stroke="#34A853" stroke-width="1.5" />
      
      <circle cx="450" cy="15" rx="6" ry="4" fill="#34A853" transform="rotate(-30 450 15)" />
      <line x1="455" y1="15" x2="455" y2="-15" stroke="#34A853" stroke-width="1.5" />
      
      <circle cx="500" cy="10" rx="6" ry="4" fill="#34A853" transform="rotate(-30 500 10)" />
      <line x1="505" y1="10" x2="505" y2="-20" stroke="#34A853" stroke-width="1.5" />
      
      <!-- 16th notes -->
      <circle cx="550" cy="15" rx="6" ry="4" fill="#34A853" transform="rotate(-30 550 15)" />
      <line x1="555" y1="15" x2="555" y2="-15" stroke="#34A853" stroke-width="1.5" />
      <path d="M 555 -15 C 565 -10, 565 -5, 555 0" stroke="#34A853" fill="none" stroke-width="1.5" />
      <path d="M 555 -7 C 565 -2, 565 3, 555 8" stroke="#34A853" fill="none" stroke-width="1.5" />
      
      <circle cx="585" cy="20" rx="6" ry="4" fill="#34A853" transform="rotate(-30 585 20)" />
      <line x1="590" y1="20" x2="590" y2="-10" stroke="#34A853" stroke-width="1.5" />
      <path d="M 590 -10 C 600 -5, 600 0, 590 5" stroke="#34A853" fill="none" stroke-width="1.5" />
      <path d="M 590 -2 C 600 3, 600 8, 590 13" stroke="#34A853" fill="none" stroke-width="1.5" />
      
      <!-- Quarter notes -->
      <circle cx="620" cy="15" rx="6" ry="4" fill="#34A853" transform="rotate(-30 620 15)" />
      <line x1="625" y1="15" x2="625" y2="-15" stroke="#34A853" stroke-width="1.5" />
      
      <circle cx="655" cy="10" rx="6" ry="4" fill="#34A853" transform="rotate(-30 655 10)" />
      <line x1="660" y1="10" x2="660" y2="-20" stroke="#34A853" stroke-width="1.5" />
    </g>
    
    <!-- Section markers at the bottom -->
    <g transform="translate(0, 220)">
      <line x1="100" y1="0" x2="700" y2="0" stroke="#999" stroke-width="1" />
      
      <line x1="300" y1="-230" x2="300" y2="0" stroke="#999" stroke-width="1" stroke-dasharray="5,5" />
      <line x1="500" y1="-230" x2="500" y2="0" stroke="#999" stroke-width="1" stroke-dasharray="5,5" />
      
      <rect x="100" y="5" width="200" height="25" fill="#f2f2f2" rx="3" />
      <text x="200" y="22" font-size="14" text-anchor="middle">Exposition</text>
      
      <rect x="300" y="5" width="200" height="25" fill="#f2f2f2" rx="3" />
      <text x="400" y="22" font-size="14" text-anchor="middle">Development</text>
      
      <rect x="500" y="5" width="200" height="25" fill="#f2f2f2" rx="3" />
      <text x="600" y="22" font-size="14" text-anchor="middle">Culmination</text>
    </g>
  </g>
  
  </svg>